<mxfile host="app.diagrams.net" agent="Mozilla/5.0 (Windows NT 10.0; Win64; x64) AppleWebKit/537.36 (KHTML, like Gecko) Chrome/131.0.0.0 Safari/537.36 Edg/131.0.0.0" version="24.8.6">
  <diagram name="第 1 页" id="Wn9v8ScD_u0HXyVKxDyA">
    <mxGraphModel dx="704" dy="413" grid="0" gridSize="10" guides="1" tooltips="1" connect="1" arrows="1" fold="1" page="0" pageScale="1" pageWidth="827" pageHeight="1169" background="#ffffff" math="0" shadow="0">
      <root>
        <mxCell id="0" />
        <mxCell id="1" parent="0" />
        <mxCell id="5k12RLIri9G1TouvQHry-1" value="" style="swimlane;startSize=0;fontSize=14;strokeWidth=2;container=0;fontFamily=宋体;fontStyle=0" parent="1" vertex="1">
          <mxGeometry x="341" y="566" width="521" height="212" as="geometry" />
        </mxCell>
        <mxCell id="5k12RLIri9G1TouvQHry-2" value="水印注入算法" style="text;html=1;align=center;verticalAlign=middle;whiteSpace=wrap;rounded=0;fontSize=14;strokeWidth=2;fontFamily=宋体;fontStyle=0" parent="5k12RLIri9G1TouvQHry-1" vertex="1">
          <mxGeometry x="11" y="91" width="74" height="35" as="geometry" />
        </mxCell>
        <mxCell id="5k12RLIri9G1TouvQHry-3" value="自动搜索算法" style="rounded=1;whiteSpace=wrap;html=1;fontSize=14;strokeWidth=2;fillColor=#d5e8d4;strokeColor=#82b366;fontFamily=宋体;fontStyle=0" parent="5k12RLIri9G1TouvQHry-1" vertex="1">
          <mxGeometry x="370.25" y="68" width="120" height="60" as="geometry" />
        </mxCell>
        <mxCell id="5k12RLIri9G1TouvQHry-4" style="edgeStyle=orthogonalEdgeStyle;rounded=0;orthogonalLoop=1;jettySize=auto;html=1;exitX=0.5;exitY=1;exitDx=0;exitDy=0;entryX=0.5;entryY=0;entryDx=0;entryDy=0;fontSize=14;strokeWidth=2;fontFamily=宋体;fontStyle=0" parent="1" source="5k12RLIri9G1TouvQHry-5" target="5k12RLIri9G1TouvQHry-21" edge="1">
          <mxGeometry relative="1" as="geometry" />
        </mxCell>
        <mxCell id="5k12RLIri9G1TouvQHry-5" value="" style="shape=image;verticalLabelPosition=bottom;labelBackgroundColor=default;verticalAlign=top;aspect=fixed;imageAspect=0;image=data:image/svg+xml,PHN2ZyB4bWxuczp4bGluaz0iaHR0cDovL3d3dy53My5vcmcvMTk5OS94bGluayIgeG1sbnM9Imh0dHA6Ly93d3cudzMub3JnLzIwMDAvc3ZnIiBoZWlnaHQ9IjIwMCIgd2lkdGg9IjIwMCIgdmVyc2lvbj0iMS4xIiB2aWV3Qm94PSIwIDAgMTAyNCAxMDI0IiBjbGFzcz0iaWNvbiI+PHBhdGggZD0iTTM4OC40MDg3NTI0NCAyOTUuNzI2NDQwNDNoMTIzLjU4MTM2MDFjOC41MzgwMjQ2NyAwIDE1LjgwMDUzNzM0IDIuOTkxMDI3NTkgMjEuODUxODA2MTcgOS4wNjcwMTY4NCA2LjAzMTQ5MzkxIDUuOTcyMTY3NzMgOS4wNjcwMTY4NCAxMy4yODkwNjI1IDkuMDY3MDE2ODQgMjEuODM2OTc0NjIgMCA4LjU1Mjg1NjIxLTMuMDM1NTIyMjIgMTUuNzYwOTg2MDktOS4wNjIwNzI3NiAyMS44MzY5NzUzMy02LjA1NjIxMzYyIDUuOTc3MTExODItMTMuMzE4NzI1NTkgOS4wNjcwMTY4NC0yMS44NTY3NTAyNSA5LjA2NzAxNjg0SDM4OC40MDM4MDgzNmMtOC41MjgxMzcyMSAwLTE1LjgwMDUzNzM0LTMuMDg5OTA1MDItMjEuODQ2ODYyOC05LjA2NzAxNjg0LTYuMDQ2MzI1NDUtNi4wNzU5ODg1My05LjA2MjA3Mjc2LTEzLjI4NDExODQyLTkuMDYyMDcyNzUtMjEuODM2OTc1MzNzMy4wMTU3NDczMS0xNS44NjQ4MDY4OSA5LjA2MjA3Mjc1LTIxLjgzNjk3NDYyYzYuMDQ2MzI1NDUtNi4wODA5MzI2MiAxMy4zMTg3MjU1OS05LjA2NzAxNjg0IDIxLjg1MTgwNjg4LTkuMDY3MDE2ODRtMCAxMjMuNTEyMTQ1NzVINjM1LjU5NjE5MTY0YzguNTI4MTM3MjEgMCAxNS44MDA1MzczNCAzLjA4OTkwNTAyIDIxLjg1MTgwNjE3IDkuMDY3MDE2ODUgNi4wMzE0OTM5MSA2LjA3NTk4ODUzIDkuMDU3MTI4NjcgMTMuMzg3OTM5MjIgOS4wNTcxMjkzOCAyMS45NDA3OTYxMyAwIDguNDQ0MDkyMDMtMy4wMjU2MzQ3NyAxNS43NjA5ODYwOS05LjA1MjE4NTI5IDIxLjgzNjk3NDYyLTYuMDU2MjEzNjIgNS45NzIxNjc3My0xMy4zMjg2MTMwNSA5LjA2NzAxNjg0LTIxLjg1Njc1MDI2IDkuMDY3MDE2ODVoLTI0Ny4xOTIzODMyOGMtOC41MjgxMzcyMSAwLTE1LjgwMDUzNzM0LTMuMDk0ODQ4MzktMjEuODQ2ODYyOC05LjA2NzAxNjg1LTYuMDQ2MzI1NDUtNi4wODA5MzI2Mi05LjA2MjA3Mjc2LTEzLjM5Mjg4MzMtOS4wNjIwNzI3NS0yMS44MzY5NzQ2MiAwLTguNTUyODU2MjEgMy4wMTU3NDczMS0xNS44Njk3NTA5OCA5LjA2MjA3Mjc1LTIxLjk0MDc5NjEzIDYuMDQ2MzI1NDUtNS45NzcxMTE4MiAxMy4zMTg3MjU1OS05LjA2NzAxNjg0IDIxLjg1MTgwNjg4LTkuMDY3MDE2ODVtMzM5Ljg0NTAzMTUtMjE2LjIxOTE3Njc2SDI5NS42ODY4ODk4OWMtOC41MzgwMjQ2NyAwLTE1Ljc5NTU5MzI2IDIuOTg2MDg0MjItMjEuODUxODA2ODggOS4wNjIwNzI3Ni02LjAzMTQ5MzkxIDUuOTc3MTExODItOS4wNjcwMTY4NCAxMy4yODkwNjI1LTkuMDY3MDE2ODQgMjEuODQxOTE4N3Y1NTYuMTUzMTk4MjRjMCA4LjU1Mjg1NjIxIDMuMDQwNDY2MzEgMTUuODY5NzUwOTggOS4wNjIwNzI3NSAyMS44NDE5MTg3MSA2LjA2MTE1Njk5IDYuMDc1OTg4NTMgMTMuMzE4NzI1NTkgOS4xNjU4OTM1NiAyMS44NTY3NTA5NyA5LjE2NTg5MzU1aDQzMi41NzE4MzgxNGM4LjUyODEzNzIxIDAgMTUuODMwMjAwNDMtMy4wODk5MDUwMiAyMS44MzY5NzUzMy05LjE2NTg5MzU1IDYuMDgwOTMyNjItNS45NzcxMTE4MiA5LjA5NjY3OTkyLTEzLjI4OTA2MjUgOS4wOTY2NzkyMi0yMS44NDE5MTg3MVYyMzMuOTIzNDAwODhjMC04LjU1Mjg1NjIxLTMuMDE1NzQ3MzEtMTUuODY5NzUwOTgtOS4wOTY2NzkyMi0yMS44NDE5MTg3MS02LjAwNjc3NDktNi4wNzU5ODg1My0xMy4zMDg4MzgxMy05LjA2MjA3Mjc2LTIxLjgzNjk3NTM0LTkuMDYyMDcyNzVNMzg4LjQwODc1MjQ0IDU0Mi44NDk2MDkzOGgyNDcuMTkyMzgyNTdjOC41MjgxMzcyMSAwIDE1LjgwMDUzNzM0IDIuOTkxMDI3NTkgMjEuODUxODA2ODkgOS4wNjcwMTY4NCA2LjAzMTQ5MzkxIDYuMDgwOTMyNjIgOS4wNTcxMjg2NyAxMy4zOTI4ODMzIDkuMDU3MTI4NjYgMjEuODM2OTc0NjIgMCA4LjU1Mjg1NjIxLTMuMDI1NjM0NzcgMTUuODY5NzUwOTgtOS4wNTIxODQ1OCAyMS44NDE5MTk0Mi02LjA1NjIxMzYyIDYuMDc1OTg4NTMtMTMuMzI4NjEzMDUgOS4xNjU4OTM1Ni0yMS44NTY3NTA5NyA5LjE2NTg5MzU2aC0yNDcuMTkyMzgyNTdjLTguNTI4MTM3MjEgMC0xNS44MDA1MzczNC0zLjA4OTkwNTAyLTIxLjg0Njg2Mjc5LTkuMTY1ODkzNTZDMzYwLjUyMDUwNzU4IDU4OS42MTg0MDg0NCAzNTcuNTA0NzYwOTggNTgyLjMwMTUxMzY3IDM1Ny41MDQ3NjA5OCA1NzMuNzQ4NjU3NDdjMC04LjQ0NDA5MjAzIDMuMDE1NzQ3MzEtMTUuNzYwOTg2MDkgOS4wNjIwNzI3Ni0yMS44MzY5NzUzNCA2LjA0NjMyNTQ1LTYuMDgwOTMyNjIgMTMuMzE4NzI1NTktOS4wNjcwMTY4NCAyMS44NTE4MDYxNi05LjA2NzAxNjg0bTAgMTIzLjYxNTk2NzI4SDYzNS41OTYxOTE2NGM4LjUyODEzNzIxIDAgMTUuODAwNTM3MzQgMy4wODk5MDUwMiAyMS44NTE4MDYxNyA5LjA2NzAxNjExIDYuMDMxNDkzOTEgNi4wNzU5ODg1MyA5LjA1NzEyODY3IDEzLjM4NzkzOTIyIDkuMDU3MTI5MzggMjEuODM2OTc1MzUgMCA4LjU1Mjg1NjIxLTMuMDI1NjM0NzcgMTUuODY0ODA2ODktOS4wNTIxODUyOSAyMS44MzY5NzUzMy02LjA1NjIxMzYyIDYuMDgwOTMyNjItMTMuMzI4NjEzMDUgOS4xNjU4OTM1Ni0yMS44NTY3NTAyNiA5LjE2NTg5MzU1aC0yNDcuMTkyMzgzMjhjLTguNTI4MTM3MjEgMC0xNS44MDA1MzczNC0zLjA4OTkwNTAyLTIxLjg0Njg2MjgtOS4xNjU4OTM1NS02LjA0NjMyNTQ1LTUuOTcyMTY3NzMtOS4wNjIwNzI3Ni0xMy4yODkwNjI1LTkuMDYyMDcyNzUtMjEuODM2OTc1MzMgMC04LjQ0OTAzNTQgMy4wMTU3NDczMS0xNS43NjA5ODYwOSA5LjA2MjA3Mjc1LTIxLjgzNjk3NTM1IDYuMDQ2MzI1NDUtNS45NzcxMTE4MiAxMy4zMTg3MjU1OS05LjA2NzAxNjg0IDIxLjg1MTgwNjg4LTkuMDY3MDE2MTFNMjk1LjcwNjY2NDggMTQxLjIxMTQyNTc4aDQzMi41ODY2NzA0YzI1LjU2NDYzNTk5IDAgNDcuNDM2MjE4NSA4Ljk2MzE5NjA0IDY1LjUzMDcwMDIgMjcuMDkyMjg0OTJDODExLjk0MzIzNzU0IDE4Ni40MzI4MDAyOSA4MjAuOTkwNDc4NzUgMjA4LjI2OTc3NTYzIDgyMC45OTA0Nzg3NSAyMzMuOTIzNDAwODh2NTU2LjE1MzE5ODI0YzAgMjUuNTQ5ODA0NDUtOS4wNTIxODUzIDQ3LjQ5MDYwMDU4LTI3LjE2MTQ5OTI2IDY1LjUxNTg2OTM4LTE4LjA5NDQ4MjQyIDE4LjEyOTA4OTYtMzkuOTY2MDY0MjIgMjcuMTk2MTA1NzItNjUuNTMwNzAwOTIgMjcuMTk2MTA1NzJoLTQzMi41ODY2Njk2OWMtMjUuNTc0NTI0MTYgMC00Ny40MzEyNzQ0Mi05LjA2NzAxNjg0LTY1LjUzMDcwMDkxLTI3LjE5MTE2MjM0QzIxMi4wNjE3MDY1NCA4MzcuNTYyMjU1NjMgMjAzLjAwOTUyMTI1IDgxNS42MjE0NjAyIDIwMy4wMDk1MjEyNSA3OTAuMDcxNjU1MDNWMjMzLjkyMzQwMDg4QzIwMy4wMDk1MjEyNSAyMDguMjY5Nzc1NjMgMjEyLjA2MTcwNjU0IDE4Ni40MzI4MDAyOSAyMzAuMTgwOTA3OTcgMTY4LjMwMzcxMDcgMjQ4LjI3NTM5MDM5IDE1MC4xNzQ2MjE4MiAyNzAuMTM3MDg0NzIgMTQxLjIxMTQyNTc4IDI5NS43MTE2MDg4OCAxNDEuMjExNDI1NzgiLz48L3N2Zz4=;fontSize=14;strokeWidth=2;fontFamily=宋体;fontStyle=0" parent="1" vertex="1">
          <mxGeometry x="415" y="497" width="60" height="60" as="geometry" />
        </mxCell>
        <mxCell id="5k12RLIri9G1TouvQHry-6" value="水印词汇" style="text;html=1;align=center;verticalAlign=middle;whiteSpace=wrap;rounded=0;fontSize=14;strokeWidth=2;fontFamily=宋体;fontStyle=0" parent="1" vertex="1">
          <mxGeometry x="466" y="504.5" width="69" height="45" as="geometry" />
        </mxCell>
        <mxCell id="5k12RLIri9G1TouvQHry-7" style="edgeStyle=orthogonalEdgeStyle;rounded=0;orthogonalLoop=1;jettySize=auto;html=1;exitX=0.5;exitY=1;exitDx=0;exitDy=0;fontSize=14;strokeWidth=2;fontFamily=宋体;fontStyle=0" parent="1" source="5k12RLIri9G1TouvQHry-8" target="5k12RLIri9G1TouvQHry-21" edge="1">
          <mxGeometry relative="1" as="geometry" />
        </mxCell>
        <mxCell id="5k12RLIri9G1TouvQHry-8" value="" style="shape=image;verticalLabelPosition=bottom;labelBackgroundColor=default;verticalAlign=top;aspect=fixed;imageAspect=0;image=data:image/svg+xml,PHN2ZyB4bWxuczp4bGluaz0iaHR0cDovL3d3dy53My5vcmcvMTk5OS94bGluayIgeG1sbnM9Imh0dHA6Ly93d3cudzMub3JnLzIwMDAvc3ZnIiBoZWlnaHQ9IjIwMCIgd2lkdGg9IjIwMCIgdmVyc2lvbj0iMS4xIiB2aWV3Qm94PSIwIDAgMTAyNCAxMDI0IiBjbGFzcz0iaWNvbiI+PHBhdGggZD0iTTM4OC40MDg3NTI0NCAyOTUuNzI2NDQwNDNoMTIzLjU4MTM2MDFjOC41MzgwMjQ2NyAwIDE1LjgwMDUzNzM0IDIuOTkxMDI3NTkgMjEuODUxODA2MTcgOS4wNjcwMTY4NCA2LjAzMTQ5MzkxIDUuOTcyMTY3NzMgOS4wNjcwMTY4NCAxMy4yODkwNjI1IDkuMDY3MDE2ODQgMjEuODM2OTc0NjIgMCA4LjU1Mjg1NjIxLTMuMDM1NTIyMjIgMTUuNzYwOTg2MDktOS4wNjIwNzI3NiAyMS44MzY5NzUzMy02LjA1NjIxMzYyIDUuOTc3MTExODItMTMuMzE4NzI1NTkgOS4wNjcwMTY4NC0yMS44NTY3NTAyNSA5LjA2NzAxNjg0SDM4OC40MDM4MDgzNmMtOC41MjgxMzcyMSAwLTE1LjgwMDUzNzM0LTMuMDg5OTA1MDItMjEuODQ2ODYyOC05LjA2NzAxNjg0LTYuMDQ2MzI1NDUtNi4wNzU5ODg1My05LjA2MjA3Mjc2LTEzLjI4NDExODQyLTkuMDYyMDcyNzUtMjEuODM2OTc1MzNzMy4wMTU3NDczMS0xNS44NjQ4MDY4OSA5LjA2MjA3Mjc1LTIxLjgzNjk3NDYyYzYuMDQ2MzI1NDUtNi4wODA5MzI2MiAxMy4zMTg3MjU1OS05LjA2NzAxNjg0IDIxLjg1MTgwNjg4LTkuMDY3MDE2ODRtMCAxMjMuNTEyMTQ1NzVINjM1LjU5NjE5MTY0YzguNTI4MTM3MjEgMCAxNS44MDA1MzczNCAzLjA4OTkwNTAyIDIxLjg1MTgwNjE3IDkuMDY3MDE2ODUgNi4wMzE0OTM5MSA2LjA3NTk4ODUzIDkuMDU3MTI4NjcgMTMuMzg3OTM5MjIgOS4wNTcxMjkzOCAyMS45NDA3OTYxMyAwIDguNDQ0MDkyMDMtMy4wMjU2MzQ3NyAxNS43NjA5ODYwOS05LjA1MjE4NTI5IDIxLjgzNjk3NDYyLTYuMDU2MjEzNjIgNS45NzIxNjc3My0xMy4zMjg2MTMwNSA5LjA2NzAxNjg0LTIxLjg1Njc1MDI2IDkuMDY3MDE2ODVoLTI0Ny4xOTIzODMyOGMtOC41MjgxMzcyMSAwLTE1LjgwMDUzNzM0LTMuMDk0ODQ4MzktMjEuODQ2ODYyOC05LjA2NzAxNjg1LTYuMDQ2MzI1NDUtNi4wODA5MzI2Mi05LjA2MjA3Mjc2LTEzLjM5Mjg4MzMtOS4wNjIwNzI3NS0yMS44MzY5NzQ2MiAwLTguNTUyODU2MjEgMy4wMTU3NDczMS0xNS44Njk3NTA5OCA5LjA2MjA3Mjc1LTIxLjk0MDc5NjEzIDYuMDQ2MzI1NDUtNS45NzcxMTE4MiAxMy4zMTg3MjU1OS05LjA2NzAxNjg0IDIxLjg1MTgwNjg4LTkuMDY3MDE2ODVtMzM5Ljg0NTAzMTUtMjE2LjIxOTE3Njc2SDI5NS42ODY4ODk4OWMtOC41MzgwMjQ2NyAwLTE1Ljc5NTU5MzI2IDIuOTg2MDg0MjItMjEuODUxODA2ODggOS4wNjIwNzI3Ni02LjAzMTQ5MzkxIDUuOTc3MTExODItOS4wNjcwMTY4NCAxMy4yODkwNjI1LTkuMDY3MDE2ODQgMjEuODQxOTE4N3Y1NTYuMTUzMTk4MjRjMCA4LjU1Mjg1NjIxIDMuMDQwNDY2MzEgMTUuODY5NzUwOTggOS4wNjIwNzI3NSAyMS44NDE5MTg3MSA2LjA2MTE1Njk5IDYuMDc1OTg4NTMgMTMuMzE4NzI1NTkgOS4xNjU4OTM1NiAyMS44NTY3NTA5NyA5LjE2NTg5MzU1aDQzMi41NzE4MzgxNGM4LjUyODEzNzIxIDAgMTUuODMwMjAwNDMtMy4wODk5MDUwMiAyMS44MzY5NzUzMy05LjE2NTg5MzU1IDYuMDgwOTMyNjItNS45NzcxMTE4MiA5LjA5NjY3OTkyLTEzLjI4OTA2MjUgOS4wOTY2NzkyMi0yMS44NDE5MTg3MVYyMzMuOTIzNDAwODhjMC04LjU1Mjg1NjIxLTMuMDE1NzQ3MzEtMTUuODY5NzUwOTgtOS4wOTY2NzkyMi0yMS44NDE5MTg3MS02LjAwNjc3NDktNi4wNzU5ODg1My0xMy4zMDg4MzgxMy05LjA2MjA3Mjc2LTIxLjgzNjk3NTM0LTkuMDYyMDcyNzVNMzg4LjQwODc1MjQ0IDU0Mi44NDk2MDkzOGgyNDcuMTkyMzgyNTdjOC41MjgxMzcyMSAwIDE1LjgwMDUzNzM0IDIuOTkxMDI3NTkgMjEuODUxODA2ODkgOS4wNjcwMTY4NCA2LjAzMTQ5MzkxIDYuMDgwOTMyNjIgOS4wNTcxMjg2NyAxMy4zOTI4ODMzIDkuMDU3MTI4NjYgMjEuODM2OTc0NjIgMCA4LjU1Mjg1NjIxLTMuMDI1NjM0NzcgMTUuODY5NzUwOTgtOS4wNTIxODQ1OCAyMS44NDE5MTk0Mi02LjA1NjIxMzYyIDYuMDc1OTg4NTMtMTMuMzI4NjEzMDUgOS4xNjU4OTM1Ni0yMS44NTY3NTA5NyA5LjE2NTg5MzU2aC0yNDcuMTkyMzgyNTdjLTguNTI4MTM3MjEgMC0xNS44MDA1MzczNC0zLjA4OTkwNTAyLTIxLjg0Njg2Mjc5LTkuMTY1ODkzNTZDMzYwLjUyMDUwNzU4IDU4OS42MTg0MDg0NCAzNTcuNTA0NzYwOTggNTgyLjMwMTUxMzY3IDM1Ny41MDQ3NjA5OCA1NzMuNzQ4NjU3NDdjMC04LjQ0NDA5MjAzIDMuMDE1NzQ3MzEtMTUuNzYwOTg2MDkgOS4wNjIwNzI3Ni0yMS44MzY5NzUzNCA2LjA0NjMyNTQ1LTYuMDgwOTMyNjIgMTMuMzE4NzI1NTktOS4wNjcwMTY4NCAyMS44NTE4MDYxNi05LjA2NzAxNjg0bTAgMTIzLjYxNTk2NzI4SDYzNS41OTYxOTE2NGM4LjUyODEzNzIxIDAgMTUuODAwNTM3MzQgMy4wODk5MDUwMiAyMS44NTE4MDYxNyA5LjA2NzAxNjExIDYuMDMxNDkzOTEgNi4wNzU5ODg1MyA5LjA1NzEyODY3IDEzLjM4NzkzOTIyIDkuMDU3MTI5MzggMjEuODM2OTc1MzUgMCA4LjU1Mjg1NjIxLTMuMDI1NjM0NzcgMTUuODY0ODA2ODktOS4wNTIxODUyOSAyMS44MzY5NzUzMy02LjA1NjIxMzYyIDYuMDgwOTMyNjItMTMuMzI4NjEzMDUgOS4xNjU4OTM1Ni0yMS44NTY3NTAyNiA5LjE2NTg5MzU1aC0yNDcuMTkyMzgzMjhjLTguNTI4MTM3MjEgMC0xNS44MDA1MzczNC0zLjA4OTkwNTAyLTIxLjg0Njg2MjgtOS4xNjU4OTM1NS02LjA0NjMyNTQ1LTUuOTcyMTY3NzMtOS4wNjIwNzI3Ni0xMy4yODkwNjI1LTkuMDYyMDcyNzUtMjEuODM2OTc1MzMgMC04LjQ0OTAzNTQgMy4wMTU3NDczMS0xNS43NjA5ODYwOSA5LjA2MjA3Mjc1LTIxLjgzNjk3NTM1IDYuMDQ2MzI1NDUtNS45NzcxMTE4MiAxMy4zMTg3MjU1OS05LjA2NzAxNjg0IDIxLjg1MTgwNjg4LTkuMDY3MDE2MTFNMjk1LjcwNjY2NDggMTQxLjIxMTQyNTc4aDQzMi41ODY2NzA0YzI1LjU2NDYzNTk5IDAgNDcuNDM2MjE4NSA4Ljk2MzE5NjA0IDY1LjUzMDcwMDIgMjcuMDkyMjg0OTJDODExLjk0MzIzNzU0IDE4Ni40MzI4MDAyOSA4MjAuOTkwNDc4NzUgMjA4LjI2OTc3NTYzIDgyMC45OTA0Nzg3NSAyMzMuOTIzNDAwODh2NTU2LjE1MzE5ODI0YzAgMjUuNTQ5ODA0NDUtOS4wNTIxODUzIDQ3LjQ5MDYwMDU4LTI3LjE2MTQ5OTI2IDY1LjUxNTg2OTM4LTE4LjA5NDQ4MjQyIDE4LjEyOTA4OTYtMzkuOTY2MDY0MjIgMjcuMTk2MTA1NzItNjUuNTMwNzAwOTIgMjcuMTk2MTA1NzJoLTQzMi41ODY2Njk2OWMtMjUuNTc0NTI0MTYgMC00Ny40MzEyNzQ0Mi05LjA2NzAxNjg0LTY1LjUzMDcwMDkxLTI3LjE5MTE2MjM0QzIxMi4wNjE3MDY1NCA4MzcuNTYyMjU1NjMgMjAzLjAwOTUyMTI1IDgxNS42MjE0NjAyIDIwMy4wMDk1MjEyNSA3OTAuMDcxNjU1MDNWMjMzLjkyMzQwMDg4QzIwMy4wMDk1MjEyNSAyMDguMjY5Nzc1NjMgMjEyLjA2MTcwNjU0IDE4Ni40MzI4MDAyOSAyMzAuMTgwOTA3OTcgMTY4LjMwMzcxMDcgMjQ4LjI3NTM5MDM5IDE1MC4xNzQ2MjE4MiAyNzAuMTM3MDg0NzIgMTQxLjIxMTQyNTc4IDI5NS43MTE2MDg4OCAxNDEuMjExNDI1NzgiLz48L3N2Zz4=;fontSize=14;strokeWidth=2;fontFamily=宋体;fontStyle=0" parent="1" vertex="1">
          <mxGeometry x="535" y="497" width="60" height="60" as="geometry" />
        </mxCell>
        <mxCell id="5k12RLIri9G1TouvQHry-9" value="水印偏移" style="text;html=1;align=center;verticalAlign=middle;whiteSpace=wrap;rounded=0;fontSize=14;strokeWidth=2;fontFamily=宋体;fontStyle=0" parent="1" vertex="1">
          <mxGeometry x="586" y="504.5" width="69" height="45" as="geometry" />
        </mxCell>
        <mxCell id="5k12RLIri9G1TouvQHry-10" style="edgeStyle=orthogonalEdgeStyle;rounded=0;orthogonalLoop=1;jettySize=auto;html=1;exitX=0.5;exitY=1;exitDx=0;exitDy=0;fontSize=14;fontFamily=宋体;fontStyle=0" parent="1" source="5k12RLIri9G1TouvQHry-11" target="5k12RLIri9G1TouvQHry-3" edge="1">
          <mxGeometry relative="1" as="geometry" />
        </mxCell>
        <mxCell id="5k12RLIri9G1TouvQHry-11" value="" style="shape=image;verticalLabelPosition=bottom;labelBackgroundColor=default;verticalAlign=top;aspect=fixed;imageAspect=0;image=data:image/svg+xml,PHN2ZyB4bWxuczp4bGluaz0iaHR0cDovL3d3dy53My5vcmcvMTk5OS94bGluayIgeG1sbnM9Imh0dHA6Ly93d3cudzMub3JnLzIwMDAvc3ZnIiBoZWlnaHQ9IjIwMCIgd2lkdGg9IjIwMCIgdmVyc2lvbj0iMS4xIiB2aWV3Qm94PSIwIDAgMTAyNCAxMDI0IiBjbGFzcz0iaWNvbiI+PHBhdGggZD0iTTM4OC40MDg3NTI0NCAyOTUuNzI2NDQwNDNoMTIzLjU4MTM2MDFjOC41MzgwMjQ2NyAwIDE1LjgwMDUzNzM0IDIuOTkxMDI3NTkgMjEuODUxODA2MTcgOS4wNjcwMTY4NCA2LjAzMTQ5MzkxIDUuOTcyMTY3NzMgOS4wNjcwMTY4NCAxMy4yODkwNjI1IDkuMDY3MDE2ODQgMjEuODM2OTc0NjIgMCA4LjU1Mjg1NjIxLTMuMDM1NTIyMjIgMTUuNzYwOTg2MDktOS4wNjIwNzI3NiAyMS44MzY5NzUzMy02LjA1NjIxMzYyIDUuOTc3MTExODItMTMuMzE4NzI1NTkgOS4wNjcwMTY4NC0yMS44NTY3NTAyNSA5LjA2NzAxNjg0SDM4OC40MDM4MDgzNmMtOC41MjgxMzcyMSAwLTE1LjgwMDUzNzM0LTMuMDg5OTA1MDItMjEuODQ2ODYyOC05LjA2NzAxNjg0LTYuMDQ2MzI1NDUtNi4wNzU5ODg1My05LjA2MjA3Mjc2LTEzLjI4NDExODQyLTkuMDYyMDcyNzUtMjEuODM2OTc1MzNzMy4wMTU3NDczMS0xNS44NjQ4MDY4OSA5LjA2MjA3Mjc1LTIxLjgzNjk3NDYyYzYuMDQ2MzI1NDUtNi4wODA5MzI2MiAxMy4zMTg3MjU1OS05LjA2NzAxNjg0IDIxLjg1MTgwNjg4LTkuMDY3MDE2ODRtMCAxMjMuNTEyMTQ1NzVINjM1LjU5NjE5MTY0YzguNTI4MTM3MjEgMCAxNS44MDA1MzczNCAzLjA4OTkwNTAyIDIxLjg1MTgwNjE3IDkuMDY3MDE2ODUgNi4wMzE0OTM5MSA2LjA3NTk4ODUzIDkuMDU3MTI4NjcgMTMuMzg3OTM5MjIgOS4wNTcxMjkzOCAyMS45NDA3OTYxMyAwIDguNDQ0MDkyMDMtMy4wMjU2MzQ3NyAxNS43NjA5ODYwOS05LjA1MjE4NTI5IDIxLjgzNjk3NDYyLTYuMDU2MjEzNjIgNS45NzIxNjc3My0xMy4zMjg2MTMwNSA5LjA2NzAxNjg0LTIxLjg1Njc1MDI2IDkuMDY3MDE2ODVoLTI0Ny4xOTIzODMyOGMtOC41MjgxMzcyMSAwLTE1LjgwMDUzNzM0LTMuMDk0ODQ4MzktMjEuODQ2ODYyOC05LjA2NzAxNjg1LTYuMDQ2MzI1NDUtNi4wODA5MzI2Mi05LjA2MjA3Mjc2LTEzLjM5Mjg4MzMtOS4wNjIwNzI3NS0yMS44MzY5NzQ2MiAwLTguNTUyODU2MjEgMy4wMTU3NDczMS0xNS44Njk3NTA5OCA5LjA2MjA3Mjc1LTIxLjk0MDc5NjEzIDYuMDQ2MzI1NDUtNS45NzcxMTE4MiAxMy4zMTg3MjU1OS05LjA2NzAxNjg0IDIxLjg1MTgwNjg4LTkuMDY3MDE2ODVtMzM5Ljg0NTAzMTUtMjE2LjIxOTE3Njc2SDI5NS42ODY4ODk4OWMtOC41MzgwMjQ2NyAwLTE1Ljc5NTU5MzI2IDIuOTg2MDg0MjItMjEuODUxODA2ODggOS4wNjIwNzI3Ni02LjAzMTQ5MzkxIDUuOTc3MTExODItOS4wNjcwMTY4NCAxMy4yODkwNjI1LTkuMDY3MDE2ODQgMjEuODQxOTE4N3Y1NTYuMTUzMTk4MjRjMCA4LjU1Mjg1NjIxIDMuMDQwNDY2MzEgMTUuODY5NzUwOTggOS4wNjIwNzI3NSAyMS44NDE5MTg3MSA2LjA2MTE1Njk5IDYuMDc1OTg4NTMgMTMuMzE4NzI1NTkgOS4xNjU4OTM1NiAyMS44NTY3NTA5NyA5LjE2NTg5MzU1aDQzMi41NzE4MzgxNGM4LjUyODEzNzIxIDAgMTUuODMwMjAwNDMtMy4wODk5MDUwMiAyMS44MzY5NzUzMy05LjE2NTg5MzU1IDYuMDgwOTMyNjItNS45NzcxMTE4MiA5LjA5NjY3OTkyLTEzLjI4OTA2MjUgOS4wOTY2NzkyMi0yMS44NDE5MTg3MVYyMzMuOTIzNDAwODhjMC04LjU1Mjg1NjIxLTMuMDE1NzQ3MzEtMTUuODY5NzUwOTgtOS4wOTY2NzkyMi0yMS44NDE5MTg3MS02LjAwNjc3NDktNi4wNzU5ODg1My0xMy4zMDg4MzgxMy05LjA2MjA3Mjc2LTIxLjgzNjk3NTM0LTkuMDYyMDcyNzVNMzg4LjQwODc1MjQ0IDU0Mi44NDk2MDkzOGgyNDcuMTkyMzgyNTdjOC41MjgxMzcyMSAwIDE1LjgwMDUzNzM0IDIuOTkxMDI3NTkgMjEuODUxODA2ODkgOS4wNjcwMTY4NCA2LjAzMTQ5MzkxIDYuMDgwOTMyNjIgOS4wNTcxMjg2NyAxMy4zOTI4ODMzIDkuMDU3MTI4NjYgMjEuODM2OTc0NjIgMCA4LjU1Mjg1NjIxLTMuMDI1NjM0NzcgMTUuODY5NzUwOTgtOS4wNTIxODQ1OCAyMS44NDE5MTk0Mi02LjA1NjIxMzYyIDYuMDc1OTg4NTMtMTMuMzI4NjEzMDUgOS4xNjU4OTM1Ni0yMS44NTY3NTA5NyA5LjE2NTg5MzU2aC0yNDcuMTkyMzgyNTdjLTguNTI4MTM3MjEgMC0xNS44MDA1MzczNC0zLjA4OTkwNTAyLTIxLjg0Njg2Mjc5LTkuMTY1ODkzNTZDMzYwLjUyMDUwNzU4IDU4OS42MTg0MDg0NCAzNTcuNTA0NzYwOTggNTgyLjMwMTUxMzY3IDM1Ny41MDQ3NjA5OCA1NzMuNzQ4NjU3NDdjMC04LjQ0NDA5MjAzIDMuMDE1NzQ3MzEtMTUuNzYwOTg2MDkgOS4wNjIwNzI3Ni0yMS44MzY5NzUzNCA2LjA0NjMyNTQ1LTYuMDgwOTMyNjIgMTMuMzE4NzI1NTktOS4wNjcwMTY4NCAyMS44NTE4MDYxNi05LjA2NzAxNjg0bTAgMTIzLjYxNTk2NzI4SDYzNS41OTYxOTE2NGM4LjUyODEzNzIxIDAgMTUuODAwNTM3MzQgMy4wODk5MDUwMiAyMS44NTE4MDYxNyA5LjA2NzAxNjExIDYuMDMxNDkzOTEgNi4wNzU5ODg1MyA5LjA1NzEyODY3IDEzLjM4NzkzOTIyIDkuMDU3MTI5MzggMjEuODM2OTc1MzUgMCA4LjU1Mjg1NjIxLTMuMDI1NjM0NzcgMTUuODY0ODA2ODktOS4wNTIxODUyOSAyMS44MzY5NzUzMy02LjA1NjIxMzYyIDYuMDgwOTMyNjItMTMuMzI4NjEzMDUgOS4xNjU4OTM1Ni0yMS44NTY3NTAyNiA5LjE2NTg5MzU1aC0yNDcuMTkyMzgzMjhjLTguNTI4MTM3MjEgMC0xNS44MDA1MzczNC0zLjA4OTkwNTAyLTIxLjg0Njg2MjgtOS4xNjU4OTM1NS02LjA0NjMyNTQ1LTUuOTcyMTY3NzMtOS4wNjIwNzI3Ni0xMy4yODkwNjI1LTkuMDYyMDcyNzUtMjEuODM2OTc1MzMgMC04LjQ0OTAzNTQgMy4wMTU3NDczMS0xNS43NjA5ODYwOSA5LjA2MjA3Mjc1LTIxLjgzNjk3NTM1IDYuMDQ2MzI1NDUtNS45NzcxMTE4MiAxMy4zMTg3MjU1OS05LjA2NzAxNjg0IDIxLjg1MTgwNjg4LTkuMDY3MDE2MTFNMjk1LjcwNjY2NDggMTQxLjIxMTQyNTc4aDQzMi41ODY2NzA0YzI1LjU2NDYzNTk5IDAgNDcuNDM2MjE4NSA4Ljk2MzE5NjA0IDY1LjUzMDcwMDIgMjcuMDkyMjg0OTJDODExLjk0MzIzNzU0IDE4Ni40MzI4MDAyOSA4MjAuOTkwNDc4NzUgMjA4LjI2OTc3NTYzIDgyMC45OTA0Nzg3NSAyMzMuOTIzNDAwODh2NTU2LjE1MzE5ODI0YzAgMjUuNTQ5ODA0NDUtOS4wNTIxODUzIDQ3LjQ5MDYwMDU4LTI3LjE2MTQ5OTI2IDY1LjUxNTg2OTM4LTE4LjA5NDQ4MjQyIDE4LjEyOTA4OTYtMzkuOTY2MDY0MjIgMjcuMTk2MTA1NzItNjUuNTMwNzAwOTIgMjcuMTk2MTA1NzJoLTQzMi41ODY2Njk2OWMtMjUuNTc0NTI0MTYgMC00Ny40MzEyNzQ0Mi05LjA2NzAxNjg0LTY1LjUzMDcwMDkxLTI3LjE5MTE2MjM0QzIxMi4wNjE3MDY1NCA4MzcuNTYyMjU1NjMgMjAzLjAwOTUyMTI1IDgxNS42MjE0NjAyIDIwMy4wMDk1MjEyNSA3OTAuMDcxNjU1MDNWMjMzLjkyMzQwMDg4QzIwMy4wMDk1MjEyNSAyMDguMjY5Nzc1NjMgMjEyLjA2MTcwNjU0IDE4Ni40MzI4MDAyOSAyMzAuMTgwOTA3OTcgMTY4LjMwMzcxMDcgMjQ4LjI3NTM5MDM5IDE1MC4xNzQ2MjE4MiAyNzAuMTM3MDg0NzIgMTQxLjIxMTQyNTc4IDI5NS43MTE2MDg4OCAxNDEuMjExNDI1NzgiLz48L3N2Zz4=;fontSize=14;strokeWidth=2;fontFamily=宋体;fontStyle=0" parent="1" vertex="1">
          <mxGeometry x="741.25" y="501" width="60" height="60" as="geometry" />
        </mxCell>
        <mxCell id="5k12RLIri9G1TouvQHry-12" value="原始文本" style="text;html=1;align=center;verticalAlign=middle;whiteSpace=wrap;rounded=0;fontSize=14;strokeWidth=2;fontFamily=宋体;fontStyle=0" parent="1" vertex="1">
          <mxGeometry x="792.25" y="508.5" width="68.75" height="45" as="geometry" />
        </mxCell>
        <mxCell id="5k12RLIri9G1TouvQHry-13" value="" style="shape=image;verticalLabelPosition=bottom;labelBackgroundColor=default;verticalAlign=top;aspect=fixed;imageAspect=0;image=data:image/svg+xml,PHN2ZyB4bWxuczp4bGluaz0iaHR0cDovL3d3dy53My5vcmcvMTk5OS94bGluayIgeG1sbnM9Imh0dHA6Ly93d3cudzMub3JnLzIwMDAvc3ZnIiBoZWlnaHQ9IjIwMCIgd2lkdGg9IjIwMCIgdmVyc2lvbj0iMS4xIiB2aWV3Qm94PSIwIDAgMTAyNCAxMDI0IiBjbGFzcz0iaWNvbiI+PHBhdGggZD0iTTM4OC40MDg3NTI0NCAyOTUuNzI2NDQwNDNoMTIzLjU4MTM2MDFjOC41MzgwMjQ2NyAwIDE1LjgwMDUzNzM0IDIuOTkxMDI3NTkgMjEuODUxODA2MTcgOS4wNjcwMTY4NCA2LjAzMTQ5MzkxIDUuOTcyMTY3NzMgOS4wNjcwMTY4NCAxMy4yODkwNjI1IDkuMDY3MDE2ODQgMjEuODM2OTc0NjIgMCA4LjU1Mjg1NjIxLTMuMDM1NTIyMjIgMTUuNzYwOTg2MDktOS4wNjIwNzI3NiAyMS44MzY5NzUzMy02LjA1NjIxMzYyIDUuOTc3MTExODItMTMuMzE4NzI1NTkgOS4wNjcwMTY4NC0yMS44NTY3NTAyNSA5LjA2NzAxNjg0SDM4OC40MDM4MDgzNmMtOC41MjgxMzcyMSAwLTE1LjgwMDUzNzM0LTMuMDg5OTA1MDItMjEuODQ2ODYyOC05LjA2NzAxNjg0LTYuMDQ2MzI1NDUtNi4wNzU5ODg1My05LjA2MjA3Mjc2LTEzLjI4NDExODQyLTkuMDYyMDcyNzUtMjEuODM2OTc1MzNzMy4wMTU3NDczMS0xNS44NjQ4MDY4OSA5LjA2MjA3Mjc1LTIxLjgzNjk3NDYyYzYuMDQ2MzI1NDUtNi4wODA5MzI2MiAxMy4zMTg3MjU1OS05LjA2NzAxNjg0IDIxLjg1MTgwNjg4LTkuMDY3MDE2ODRtMCAxMjMuNTEyMTQ1NzVINjM1LjU5NjE5MTY0YzguNTI4MTM3MjEgMCAxNS44MDA1MzczNCAzLjA4OTkwNTAyIDIxLjg1MTgwNjE3IDkuMDY3MDE2ODUgNi4wMzE0OTM5MSA2LjA3NTk4ODUzIDkuMDU3MTI4NjcgMTMuMzg3OTM5MjIgOS4wNTcxMjkzOCAyMS45NDA3OTYxMyAwIDguNDQ0MDkyMDMtMy4wMjU2MzQ3NyAxNS43NjA5ODYwOS05LjA1MjE4NTI5IDIxLjgzNjk3NDYyLTYuMDU2MjEzNjIgNS45NzIxNjc3My0xMy4zMjg2MTMwNSA5LjA2NzAxNjg0LTIxLjg1Njc1MDI2IDkuMDY3MDE2ODVoLTI0Ny4xOTIzODMyOGMtOC41MjgxMzcyMSAwLTE1LjgwMDUzNzM0LTMuMDk0ODQ4MzktMjEuODQ2ODYyOC05LjA2NzAxNjg1LTYuMDQ2MzI1NDUtNi4wODA5MzI2Mi05LjA2MjA3Mjc2LTEzLjM5Mjg4MzMtOS4wNjIwNzI3NS0yMS44MzY5NzQ2MiAwLTguNTUyODU2MjEgMy4wMTU3NDczMS0xNS44Njk3NTA5OCA5LjA2MjA3Mjc1LTIxLjk0MDc5NjEzIDYuMDQ2MzI1NDUtNS45NzcxMTE4MiAxMy4zMTg3MjU1OS05LjA2NzAxNjg0IDIxLjg1MTgwNjg4LTkuMDY3MDE2ODVtMzM5Ljg0NTAzMTUtMjE2LjIxOTE3Njc2SDI5NS42ODY4ODk4OWMtOC41MzgwMjQ2NyAwLTE1Ljc5NTU5MzI2IDIuOTg2MDg0MjItMjEuODUxODA2ODggOS4wNjIwNzI3Ni02LjAzMTQ5MzkxIDUuOTc3MTExODItOS4wNjcwMTY4NCAxMy4yODkwNjI1LTkuMDY3MDE2ODQgMjEuODQxOTE4N3Y1NTYuMTUzMTk4MjRjMCA4LjU1Mjg1NjIxIDMuMDQwNDY2MzEgMTUuODY5NzUwOTggOS4wNjIwNzI3NSAyMS44NDE5MTg3MSA2LjA2MTE1Njk5IDYuMDc1OTg4NTMgMTMuMzE4NzI1NTkgOS4xNjU4OTM1NiAyMS44NTY3NTA5NyA5LjE2NTg5MzU1aDQzMi41NzE4MzgxNGM4LjUyODEzNzIxIDAgMTUuODMwMjAwNDMtMy4wODk5MDUwMiAyMS44MzY5NzUzMy05LjE2NTg5MzU1IDYuMDgwOTMyNjItNS45NzcxMTE4MiA5LjA5NjY3OTkyLTEzLjI4OTA2MjUgOS4wOTY2NzkyMi0yMS44NDE5MTg3MVYyMzMuOTIzNDAwODhjMC04LjU1Mjg1NjIxLTMuMDE1NzQ3MzEtMTUuODY5NzUwOTgtOS4wOTY2NzkyMi0yMS44NDE5MTg3MS02LjAwNjc3NDktNi4wNzU5ODg1My0xMy4zMDg4MzgxMy05LjA2MjA3Mjc2LTIxLjgzNjk3NTM0LTkuMDYyMDcyNzVNMzg4LjQwODc1MjQ0IDU0Mi44NDk2MDkzOGgyNDcuMTkyMzgyNTdjOC41MjgxMzcyMSAwIDE1LjgwMDUzNzM0IDIuOTkxMDI3NTkgMjEuODUxODA2ODkgOS4wNjcwMTY4NCA2LjAzMTQ5MzkxIDYuMDgwOTMyNjIgOS4wNTcxMjg2NyAxMy4zOTI4ODMzIDkuMDU3MTI4NjYgMjEuODM2OTc0NjIgMCA4LjU1Mjg1NjIxLTMuMDI1NjM0NzcgMTUuODY5NzUwOTgtOS4wNTIxODQ1OCAyMS44NDE5MTk0Mi02LjA1NjIxMzYyIDYuMDc1OTg4NTMtMTMuMzI4NjEzMDUgOS4xNjU4OTM1Ni0yMS44NTY3NTA5NyA5LjE2NTg5MzU2aC0yNDcuMTkyMzgyNTdjLTguNTI4MTM3MjEgMC0xNS44MDA1MzczNC0zLjA4OTkwNTAyLTIxLjg0Njg2Mjc5LTkuMTY1ODkzNTZDMzYwLjUyMDUwNzU4IDU4OS42MTg0MDg0NCAzNTcuNTA0NzYwOTggNTgyLjMwMTUxMzY3IDM1Ny41MDQ3NjA5OCA1NzMuNzQ4NjU3NDdjMC04LjQ0NDA5MjAzIDMuMDE1NzQ3MzEtMTUuNzYwOTg2MDkgOS4wNjIwNzI3Ni0yMS44MzY5NzUzNCA2LjA0NjMyNTQ1LTYuMDgwOTMyNjIgMTMuMzE4NzI1NTktOS4wNjcwMTY4NCAyMS44NTE4MDYxNi05LjA2NzAxNjg0bTAgMTIzLjYxNTk2NzI4SDYzNS41OTYxOTE2NGM4LjUyODEzNzIxIDAgMTUuODAwNTM3MzQgMy4wODk5MDUwMiAyMS44NTE4MDYxNyA5LjA2NzAxNjExIDYuMDMxNDkzOTEgNi4wNzU5ODg1MyA5LjA1NzEyODY3IDEzLjM4NzkzOTIyIDkuMDU3MTI5MzggMjEuODM2OTc1MzUgMCA4LjU1Mjg1NjIxLTMuMDI1NjM0NzcgMTUuODY0ODA2ODktOS4wNTIxODUyOSAyMS44MzY5NzUzMy02LjA1NjIxMzYyIDYuMDgwOTMyNjItMTMuMzI4NjEzMDUgOS4xNjU4OTM1Ni0yMS44NTY3NTAyNiA5LjE2NTg5MzU1aC0yNDcuMTkyMzgzMjhjLTguNTI4MTM3MjEgMC0xNS44MDA1MzczNC0zLjA4OTkwNTAyLTIxLjg0Njg2MjgtOS4xNjU4OTM1NS02LjA0NjMyNTQ1LTUuOTcyMTY3NzMtOS4wNjIwNzI3Ni0xMy4yODkwNjI1LTkuMDYyMDcyNzUtMjEuODM2OTc1MzMgMC04LjQ0OTAzNTQgMy4wMTU3NDczMS0xNS43NjA5ODYwOSA5LjA2MjA3Mjc1LTIxLjgzNjk3NTM1IDYuMDQ2MzI1NDUtNS45NzcxMTE4MiAxMy4zMTg3MjU1OS05LjA2NzAxNjg0IDIxLjg1MTgwNjg4LTkuMDY3MDE2MTFNMjk1LjcwNjY2NDggMTQxLjIxMTQyNTc4aDQzMi41ODY2NzA0YzI1LjU2NDYzNTk5IDAgNDcuNDM2MjE4NSA4Ljk2MzE5NjA0IDY1LjUzMDcwMDIgMjcuMDkyMjg0OTJDODExLjk0MzIzNzU0IDE4Ni40MzI4MDAyOSA4MjAuOTkwNDc4NzUgMjA4LjI2OTc3NTYzIDgyMC45OTA0Nzg3NSAyMzMuOTIzNDAwODh2NTU2LjE1MzE5ODI0YzAgMjUuNTQ5ODA0NDUtOS4wNTIxODUzIDQ3LjQ5MDYwMDU4LTI3LjE2MTQ5OTI2IDY1LjUxNTg2OTM4LTE4LjA5NDQ4MjQyIDE4LjEyOTA4OTYtMzkuOTY2MDY0MjIgMjcuMTk2MTA1NzItNjUuNTMwNzAwOTIgMjcuMTk2MTA1NzJoLTQzMi41ODY2Njk2OWMtMjUuNTc0NTI0MTYgMC00Ny40MzEyNzQ0Mi05LjA2NzAxNjg0LTY1LjUzMDcwMDkxLTI3LjE5MTE2MjM0QzIxMi4wNjE3MDY1NCA4MzcuNTYyMjU1NjMgMjAzLjAwOTUyMTI1IDgxNS42MjE0NjAyIDIwMy4wMDk1MjEyNSA3OTAuMDcxNjU1MDNWMjMzLjkyMzQwMDg4QzIwMy4wMDk1MjEyNSAyMDguMjY5Nzc1NjMgMjEyLjA2MTcwNjU0IDE4Ni40MzI4MDAyOSAyMzAuMTgwOTA3OTcgMTY4LjMwMzcxMDcgMjQ4LjI3NTM5MDM5IDE1MC4xNzQ2MjE4MiAyNzAuMTM3MDg0NzIgMTQxLjIxMTQyNTc4IDI5NS43MTE2MDg4OCAxNDEuMjExNDI1NzgiLz48L3N2Zz4=;fontSize=14;strokeWidth=2;fontFamily=宋体;fontStyle=0" parent="1" vertex="1">
          <mxGeometry x="536" y="815" width="60" height="60" as="geometry" />
        </mxCell>
        <mxCell id="5k12RLIri9G1TouvQHry-14" value="水印文本" style="text;html=1;align=center;verticalAlign=middle;whiteSpace=wrap;rounded=0;fontSize=14;strokeWidth=2;fontFamily=宋体;fontStyle=0" parent="1" vertex="1">
          <mxGeometry x="587" y="822.5" width="66" height="45" as="geometry" />
        </mxCell>
        <mxCell id="5k12RLIri9G1TouvQHry-15" style="edgeStyle=orthogonalEdgeStyle;rounded=0;orthogonalLoop=1;jettySize=auto;html=1;exitX=0.5;exitY=1;exitDx=0;exitDy=0;entryX=0.5;entryY=0;entryDx=0;entryDy=0;fontSize=14;strokeWidth=2;fontFamily=宋体;fontStyle=0" parent="1" source="5k12RLIri9G1TouvQHry-24" target="5k12RLIri9G1TouvQHry-13" edge="1">
          <mxGeometry relative="1" as="geometry" />
        </mxCell>
        <mxCell id="5k12RLIri9G1TouvQHry-16" value="" style="strokeWidth=2;html=1;shape=mxgraph.flowchart.annotation_2;align=left;labelPosition=right;pointerEvents=1;fontSize=14;fontFamily=宋体;fontStyle=0" parent="1" vertex="1">
          <mxGeometry x="657" y="805" width="50" height="80" as="geometry" />
        </mxCell>
        <mxCell id="5k12RLIri9G1TouvQHry-17" value="自然性" style="rounded=1;whiteSpace=wrap;html=1;fontSize=14;strokeWidth=2;fontFamily=宋体;fontStyle=0" parent="1" vertex="1">
          <mxGeometry x="723.5" y="783" width="68" height="31" as="geometry" />
        </mxCell>
        <mxCell id="5k12RLIri9G1TouvQHry-18" value="隐蔽性" style="rounded=1;whiteSpace=wrap;html=1;fontSize=14;strokeWidth=2;fontFamily=宋体;fontStyle=0" parent="1" vertex="1">
          <mxGeometry x="723" y="829.5" width="69" height="30.5" as="geometry" />
        </mxCell>
        <mxCell id="5k12RLIri9G1TouvQHry-19" style="edgeStyle=orthogonalEdgeStyle;rounded=0;orthogonalLoop=1;jettySize=auto;html=1;exitX=0;exitY=0.5;exitDx=0;exitDy=0;entryX=1;entryY=0.5;entryDx=0;entryDy=0;fontSize=14;strokeWidth=2;fontFamily=宋体;fontStyle=0" parent="1" source="5k12RLIri9G1TouvQHry-3" target="5k12RLIri9G1TouvQHry-23" edge="1">
          <mxGeometry relative="1" as="geometry" />
        </mxCell>
        <mxCell id="5k12RLIri9G1TouvQHry-20" style="edgeStyle=orthogonalEdgeStyle;rounded=0;orthogonalLoop=1;jettySize=auto;html=1;exitX=0.5;exitY=1;exitDx=0;exitDy=0;entryX=0;entryY=0.5;entryDx=0;entryDy=0;fontSize=14;strokeWidth=2;fontFamily=宋体;fontStyle=0" parent="1" source="5k12RLIri9G1TouvQHry-21" target="5k12RLIri9G1TouvQHry-24" edge="1">
          <mxGeometry relative="1" as="geometry" />
        </mxCell>
        <mxCell id="5k12RLIri9G1TouvQHry-21" value="水印样本" style="rounded=1;whiteSpace=wrap;html=1;fontSize=14;strokeWidth=2;fillColor=#f8cecc;strokeColor=#b85450;fontFamily=宋体;fontStyle=0" parent="1" vertex="1">
          <mxGeometry x="442" y="647" width="120" height="33" as="geometry" />
        </mxCell>
        <mxCell id="5k12RLIri9G1TouvQHry-22" style="edgeStyle=orthogonalEdgeStyle;rounded=0;orthogonalLoop=1;jettySize=auto;html=1;exitX=0.5;exitY=1;exitDx=0;exitDy=0;entryX=1;entryY=0.5;entryDx=0;entryDy=0;fontSize=14;strokeWidth=2;fontFamily=宋体;fontStyle=0" parent="1" source="5k12RLIri9G1TouvQHry-23" target="5k12RLIri9G1TouvQHry-24" edge="1">
          <mxGeometry relative="1" as="geometry" />
        </mxCell>
        <mxCell id="5k12RLIri9G1TouvQHry-23" value="水印位置" style="rounded=0;whiteSpace=wrap;html=1;fontSize=14;strokeWidth=2;fillColor=#dae8fc;strokeColor=#6c8ebf;fontFamily=宋体;fontStyle=0" parent="1" vertex="1">
          <mxGeometry x="599.63" y="647" width="75.25" height="34" as="geometry" />
        </mxCell>
        <mxCell id="5k12RLIri9G1TouvQHry-24" value="" style="shape=orEllipse;perimeter=ellipsePerimeter;whiteSpace=wrap;html=1;backgroundOutline=1;fontSize=14;strokeWidth=2;fontFamily=宋体;fontStyle=0" parent="1" vertex="1">
          <mxGeometry x="549" y="713" width="34.25" height="34" as="geometry" />
        </mxCell>
        <mxCell id="5k12RLIri9G1TouvQHry-25" value="输入" style="text;html=1;align=center;verticalAlign=middle;whiteSpace=wrap;rounded=0;fontSize=14;strokeWidth=2;fontFamily=宋体;fontStyle=0" parent="1" vertex="1">
          <mxGeometry x="339" y="516" width="60" height="30" as="geometry" />
        </mxCell>
        <mxCell id="5k12RLIri9G1TouvQHry-26" value="输出" style="text;html=1;align=center;verticalAlign=middle;whiteSpace=wrap;rounded=0;fontSize=14;strokeWidth=2;fontFamily=宋体;fontStyle=0" parent="1" vertex="1">
          <mxGeometry x="345" y="825" width="60" height="30" as="geometry" />
        </mxCell>
        <mxCell id="5k12RLIri9G1TouvQHry-28" value="鲁棒性" style="rounded=1;whiteSpace=wrap;html=1;fontSize=14;strokeWidth=2;fontFamily=宋体;fontStyle=0" parent="1" vertex="1">
          <mxGeometry x="723" y="879" width="69" height="30.5" as="geometry" />
        </mxCell>
      </root>
    </mxGraphModel>
  </diagram>
</mxfile>
